<svg xmlns="http://www.w3.org/2000/svg" viewBox="0 0 512 512" width="512" height="512">
  <defs>
    <radialGradient id="bg" cx="50%" cy="42%" r="75%">
      <stop offset="0%" stop-color="#f5f7fa"/><stop offset="50%" stop-color="#e2e8f0"/><stop offset="100%" stop-color="#a8b2bf"/>
    </radialGradient>
    <linearGradient id="metal" x1="0%" y1="0%" x2="100%" y2="0%">
      <stop offset="0%" stop-color="#2a3038"/><stop offset="15%" stop-color="#5a6370"/><stop offset="30%" stop-color="#8a92a0"/><stop offset="45%" stop-color="#e8edf4"/><stop offset="52%" stop-color="#ffffff" stop-opacity="0.9"/><stop offset="58%" stop-color="#e8edf4"/><stop offset="75%" stop-color="#8a92a0"/><stop offset="100%" stop-color="#2a3038"/>
    </linearGradient>
    <linearGradient id="topShine" x1="0%" y1="0%" x2="0%" y2="100%">
      <stop offset="0%" stop-color="#ffffff" stop-opacity="0.55"/><stop offset="100%" stop-color="#ffffff" stop-opacity="0"/>
    </linearGradient>
    <filter id="shadow"><feGaussianBlur in="SourceAlpha" stdDeviation="4"/><feOffset dx="0" dy="6"/><feComponentTransfer><feFuncA type="linear" slope="0.45"/></feComponentTransfer><feMerge><feMergeNode/><feMergeNode in="SourceGraphic"/></feMerge></filter>
    <filter id="grain"><feTurbulence type="fractalNoise" baseFrequency="0.9" numOctaves="3" seed="5"/><feColorMatrix values="0 0 0 0 0  0 0 0 0 0  0 0 0 0 0  0 0 0 0.06 0"/><feComposite in2="SourceGraphic" operator="in"/></filter>
  </defs>
  <rect width="100%" height="100%" fill="url(#bg)"/>
  <ellipse cx="256" cy="441.0" rx="120" ry="12" fill="#000" opacity="0.3" filter="url(#shadow)"/>  <g filter="url(#shadow)">
    <rect x="238.0" y="76.0" width="36.0" height="360" fill="url(#metal)"/>
    <rect x="238.0" y="76.0" width="36.0" height="50" fill="url(#topShine)"/>
  <line x1="238.0" y1="90.0" x2="298.0" y2="91.0" stroke="#0a0d14" stroke-width="2" opacity="0.75"/>
  <line x1="238.0" y1="91.0" x2="298.0" y2="92.0" stroke="#000" stroke-width="1" opacity="0.5"/>
  <line x1="240.0" y1="89.0" x2="296.0" y2="90.0" stroke="#fff" stroke-width="1" opacity="0.5"/>
  <line x1="238.0" y1="102.0" x2="298.0" y2="103.0" stroke="#0a0d14" stroke-width="2" opacity="0.75"/>
  <line x1="238.0" y1="103.0" x2="298.0" y2="104.0" stroke="#000" stroke-width="1" opacity="0.5"/>
  <line x1="240.0" y1="101.0" x2="296.0" y2="102.0" stroke="#fff" stroke-width="1" opacity="0.5"/>
  <line x1="238.0" y1="114.0" x2="298.0" y2="115.0" stroke="#0a0d14" stroke-width="2" opacity="0.75"/>
  <line x1="238.0" y1="115.0" x2="298.0" y2="116.0" stroke="#000" stroke-width="1" opacity="0.5"/>
  <line x1="240.0" y1="113.0" x2="296.0" y2="114.0" stroke="#fff" stroke-width="1" opacity="0.5"/>
  <line x1="238.0" y1="126.0" x2="298.0" y2="127.0" stroke="#0a0d14" stroke-width="2" opacity="0.75"/>
  <line x1="238.0" y1="127.0" x2="298.0" y2="128.0" stroke="#000" stroke-width="1" opacity="0.5"/>
  <line x1="240.0" y1="125.0" x2="296.0" y2="126.0" stroke="#fff" stroke-width="1" opacity="0.5"/>
  <line x1="238.0" y1="138.0" x2="298.0" y2="139.0" stroke="#0a0d14" stroke-width="2" opacity="0.75"/>
  <line x1="238.0" y1="139.0" x2="298.0" y2="140.0" stroke="#000" stroke-width="1" opacity="0.5"/>
  <line x1="240.0" y1="137.0" x2="296.0" y2="138.0" stroke="#fff" stroke-width="1" opacity="0.5"/>
  <line x1="238.0" y1="150.0" x2="298.0" y2="151.0" stroke="#0a0d14" stroke-width="2" opacity="0.75"/>
  <line x1="238.0" y1="151.0" x2="298.0" y2="152.0" stroke="#000" stroke-width="1" opacity="0.5"/>
  <line x1="240.0" y1="149.0" x2="296.0" y2="150.0" stroke="#fff" stroke-width="1" opacity="0.5"/>
  <line x1="238.0" y1="162.0" x2="298.0" y2="163.0" stroke="#0a0d14" stroke-width="2" opacity="0.75"/>
  <line x1="238.0" y1="163.0" x2="298.0" y2="164.0" stroke="#000" stroke-width="1" opacity="0.5"/>
  <line x1="240.0" y1="161.0" x2="296.0" y2="162.0" stroke="#fff" stroke-width="1" opacity="0.5"/>
  <line x1="238.0" y1="174.0" x2="298.0" y2="175.0" stroke="#0a0d14" stroke-width="2" opacity="0.75"/>
  <line x1="238.0" y1="175.0" x2="298.0" y2="176.0" stroke="#000" stroke-width="1" opacity="0.5"/>
  <line x1="240.0" y1="173.0" x2="296.0" y2="174.0" stroke="#fff" stroke-width="1" opacity="0.5"/>
  <line x1="238.0" y1="186.0" x2="298.0" y2="187.0" stroke="#0a0d14" stroke-width="2" opacity="0.75"/>
  <line x1="238.0" y1="187.0" x2="298.0" y2="188.0" stroke="#000" stroke-width="1" opacity="0.5"/>
  <line x1="240.0" y1="185.0" x2="296.0" y2="186.0" stroke="#fff" stroke-width="1" opacity="0.5"/>
  <line x1="238.0" y1="198.0" x2="298.0" y2="199.0" stroke="#0a0d14" stroke-width="2" opacity="0.75"/>
  <line x1="238.0" y1="199.0" x2="298.0" y2="200.0" stroke="#000" stroke-width="1" opacity="0.5"/>
  <line x1="240.0" y1="197.0" x2="296.0" y2="198.0" stroke="#fff" stroke-width="1" opacity="0.5"/>
  <line x1="238.0" y1="210.0" x2="298.0" y2="211.0" stroke="#0a0d14" stroke-width="2" opacity="0.75"/>
  <line x1="238.0" y1="211.0" x2="298.0" y2="212.0" stroke="#000" stroke-width="1" opacity="0.5"/>
  <line x1="240.0" y1="209.0" x2="296.0" y2="210.0" stroke="#fff" stroke-width="1" opacity="0.5"/>
  <line x1="238.0" y1="222.0" x2="298.0" y2="223.0" stroke="#0a0d14" stroke-width="2" opacity="0.75"/>
  <line x1="238.0" y1="223.0" x2="298.0" y2="224.0" stroke="#000" stroke-width="1" opacity="0.5"/>
  <line x1="240.0" y1="221.0" x2="296.0" y2="222.0" stroke="#fff" stroke-width="1" opacity="0.5"/>
  <line x1="238.0" y1="234.0" x2="298.0" y2="235.0" stroke="#0a0d14" stroke-width="2" opacity="0.75"/>
  <line x1="238.0" y1="235.0" x2="298.0" y2="236.0" stroke="#000" stroke-width="1" opacity="0.5"/>
  <line x1="240.0" y1="233.0" x2="296.0" y2="234.0" stroke="#fff" stroke-width="1" opacity="0.5"/>
  <line x1="238.0" y1="246.0" x2="298.0" y2="247.0" stroke="#0a0d14" stroke-width="2" opacity="0.75"/>
  <line x1="238.0" y1="247.0" x2="298.0" y2="248.0" stroke="#000" stroke-width="1" opacity="0.5"/>
  <line x1="240.0" y1="245.0" x2="296.0" y2="246.0" stroke="#fff" stroke-width="1" opacity="0.5"/>
  <line x1="238.0" y1="258.0" x2="298.0" y2="259.0" stroke="#0a0d14" stroke-width="2" opacity="0.75"/>
  <line x1="238.0" y1="259.0" x2="298.0" y2="260.0" stroke="#000" stroke-width="1" opacity="0.5"/>
  <line x1="240.0" y1="257.0" x2="296.0" y2="258.0" stroke="#fff" stroke-width="1" opacity="0.5"/>
  <line x1="238.0" y1="270.0" x2="298.0" y2="271.0" stroke="#0a0d14" stroke-width="2" opacity="0.75"/>
  <line x1="238.0" y1="271.0" x2="298.0" y2="272.0" stroke="#000" stroke-width="1" opacity="0.5"/>
  <line x1="240.0" y1="269.0" x2="296.0" y2="270.0" stroke="#fff" stroke-width="1" opacity="0.5"/>
  <line x1="238.0" y1="282.0" x2="298.0" y2="283.0" stroke="#0a0d14" stroke-width="2" opacity="0.75"/>
  <line x1="238.0" y1="283.0" x2="298.0" y2="284.0" stroke="#000" stroke-width="1" opacity="0.5"/>
  <line x1="240.0" y1="281.0" x2="296.0" y2="282.0" stroke="#fff" stroke-width="1" opacity="0.5"/>
  <line x1="238.0" y1="294.0" x2="298.0" y2="295.0" stroke="#0a0d14" stroke-width="2" opacity="0.75"/>
  <line x1="238.0" y1="295.0" x2="298.0" y2="296.0" stroke="#000" stroke-width="1" opacity="0.5"/>
  <line x1="240.0" y1="293.0" x2="296.0" y2="294.0" stroke="#fff" stroke-width="1" opacity="0.5"/>
  <line x1="238.0" y1="306.0" x2="298.0" y2="307.0" stroke="#0a0d14" stroke-width="2" opacity="0.75"/>
  <line x1="238.0" y1="307.0" x2="298.0" y2="308.0" stroke="#000" stroke-width="1" opacity="0.5"/>
  <line x1="240.0" y1="305.0" x2="296.0" y2="306.0" stroke="#fff" stroke-width="1" opacity="0.5"/>
  <line x1="238.0" y1="318.0" x2="298.0" y2="319.0" stroke="#0a0d14" stroke-width="2" opacity="0.75"/>
  <line x1="238.0" y1="319.0" x2="298.0" y2="320.0" stroke="#000" stroke-width="1" opacity="0.5"/>
  <line x1="240.0" y1="317.0" x2="296.0" y2="318.0" stroke="#fff" stroke-width="1" opacity="0.5"/>
  <line x1="238.0" y1="330.0" x2="298.0" y2="331.0" stroke="#0a0d14" stroke-width="2" opacity="0.75"/>
  <line x1="238.0" y1="331.0" x2="298.0" y2="332.0" stroke="#000" stroke-width="1" opacity="0.5"/>
  <line x1="240.0" y1="329.0" x2="296.0" y2="330.0" stroke="#fff" stroke-width="1" opacity="0.5"/>
  <line x1="238.0" y1="342.0" x2="298.0" y2="343.0" stroke="#0a0d14" stroke-width="2" opacity="0.75"/>
  <line x1="238.0" y1="343.0" x2="298.0" y2="344.0" stroke="#000" stroke-width="1" opacity="0.5"/>
  <line x1="240.0" y1="341.0" x2="296.0" y2="342.0" stroke="#fff" stroke-width="1" opacity="0.5"/>
  <line x1="238.0" y1="354.0" x2="298.0" y2="355.0" stroke="#0a0d14" stroke-width="2" opacity="0.75"/>
  <line x1="238.0" y1="355.0" x2="298.0" y2="356.0" stroke="#000" stroke-width="1" opacity="0.5"/>
  <line x1="240.0" y1="353.0" x2="296.0" y2="354.0" stroke="#fff" stroke-width="1" opacity="0.5"/>
  <line x1="238.0" y1="366.0" x2="298.0" y2="367.0" stroke="#0a0d14" stroke-width="2" opacity="0.75"/>
  <line x1="238.0" y1="367.0" x2="298.0" y2="368.0" stroke="#000" stroke-width="1" opacity="0.5"/>
  <line x1="240.0" y1="365.0" x2="296.0" y2="366.0" stroke="#fff" stroke-width="1" opacity="0.5"/>
  <line x1="238.0" y1="378.0" x2="298.0" y2="379.0" stroke="#0a0d14" stroke-width="2" opacity="0.75"/>
  <line x1="238.0" y1="379.0" x2="298.0" y2="380.0" stroke="#000" stroke-width="1" opacity="0.5"/>
  <line x1="240.0" y1="377.0" x2="296.0" y2="378.0" stroke="#fff" stroke-width="1" opacity="0.5"/>
  <line x1="238.0" y1="390.0" x2="298.0" y2="391.0" stroke="#0a0d14" stroke-width="2" opacity="0.75"/>
  <line x1="238.0" y1="391.0" x2="298.0" y2="392.0" stroke="#000" stroke-width="1" opacity="0.5"/>
  <line x1="240.0" y1="389.0" x2="296.0" y2="390.0" stroke="#fff" stroke-width="1" opacity="0.5"/>
  <line x1="238.0" y1="402.0" x2="298.0" y2="403.0" stroke="#0a0d14" stroke-width="2" opacity="0.75"/>
  <line x1="238.0" y1="403.0" x2="298.0" y2="404.0" stroke="#000" stroke-width="1" opacity="0.5"/>
  <line x1="240.0" y1="401.0" x2="296.0" y2="402.0" stroke="#fff" stroke-width="1" opacity="0.5"/>
  <line x1="238.0" y1="414.0" x2="298.0" y2="415.0" stroke="#0a0d14" stroke-width="2" opacity="0.75"/>
  <line x1="238.0" y1="415.0" x2="298.0" y2="416.0" stroke="#000" stroke-width="1" opacity="0.5"/>
  <line x1="240.0" y1="413.0" x2="296.0" y2="414.0" stroke="#fff" stroke-width="1" opacity="0.5"/>
  <line x1="238.0" y1="426.0" x2="298.0" y2="427.0" stroke="#0a0d14" stroke-width="2" opacity="0.75"/>
  <line x1="238.0" y1="427.0" x2="298.0" y2="428.0" stroke="#000" stroke-width="1" opacity="0.5"/>
  <line x1="240.0" y1="425.0" x2="296.0" y2="426.0" stroke="#fff" stroke-width="1" opacity="0.5"/>
  <line x1="238.0" y1="438.0" x2="298.0" y2="439.0" stroke="#0a0d14" stroke-width="2" opacity="0.75"/>
  <line x1="238.0" y1="439.0" x2="298.0" y2="440.0" stroke="#000" stroke-width="1" opacity="0.5"/>
  <line x1="240.0" y1="437.0" x2="296.0" y2="438.0" stroke="#fff" stroke-width="1" opacity="0.5"/>
  </g>
  <!-- 规格标签（右上） -->
  <rect x="320" y="20" width="180" height="58" rx="6" fill="#fff" stroke="#0a0d14" stroke-width="2" opacity="0.95"/>
  <text x="332" y="48" font-family="Consolas,monospace" font-size="22" font-weight="700" fill="#0a0d14">M10 × 1000mm</text>
  <text x="332" y="68" font-family="Consolas,monospace" font-size="12" fill="#666">DIN 976 · A2</text>
  <!-- SKU 编号（左上） -->
  <rect x="14" y="14" width="68" height="30" rx="4" fill="#f7811a" opacity="0.95"/>
  <text x="48" y="34" font-family="Consolas,monospace" font-size="16" font-weight="700" fill="#fff" text-anchor="middle">R008</text>
  <rect width="100%" height="100%" fill="#000" filter="url(#grain)" opacity="0.3" pointer-events="none"/>
</svg>