<svg xmlns="http://www.w3.org/2000/svg" viewBox="0 0 200 200">
<rect width="200" height="200" fill="#11151d" rx="8"/>

<g stroke="#7ba7d4" stroke-width="2.5" fill="none">
  <!-- 沉头（锥形）-->
  <polygon points="60,80 140,80 100,40" fill="#1a2535"/>
  <polygon points="78,68 122,68 100,52" stroke-width="1" opacity="0.4"/>
  <!-- 内六角 -->
  <polygon points="88,53 112,53 118,60 118,68 112,75 88,75 82,68 82,60" stroke-width="1.5"/>
  <!-- 杆部 -->
  <rect x="92" y="80" width="16" height="85" fill="#1a2535"/>
</g>
<!-- 螺纹 -->
<g stroke="#f7811a" stroke-width="1.5" fill="none">
  <line x1="92" y1="88" x2="108" y2="88"/>
  <line x1="92" y1="95" x2="108" y2="95"/>
  <line x1="92" y1="102" x2="108" y2="102"/>
  <line x1="92" y1="109" x2="108" y2="109"/>
  <line x1="92" y1="116" x2="108" y2="116"/>
  <line x1="92" y1="123" x2="108" y2="123"/>
  <line x1="92" y1="130" x2="108" y2="130"/>
  <line x1="92" y1="137" x2="108" y2="137"/>
  <line x1="92" y1="144" x2="108" y2="144"/>
  <line x1="92" y1="151" x2="108" y2="151"/>
</g>
<g stroke="#7ba7d4" stroke-width="2" fill="none">
  <line x1="92" y1="165" x2="100" y2="178"/>
  <line x1="108" y1="165" x2="100" y2="178"/>
</g>

</svg>