<svg xmlns="http://www.w3.org/2000/svg" viewBox="0 0 512 512" width="512" height="512">
<defs>
    <radialGradient id="bg" cx="50%" cy="45%" r="70%">
      <stop offset="0%" stop-color="#f6f8fb"/>
      <stop offset="100%" stop-color="#b8c2cf"/>
    </radialGradient>
  </defs>
  <rect width="100%" height="100%" fill="url(#bg)"/>
<filter id="ds" x="-30%" y="-30%" width="160%" height="160%">
      <feGaussianBlur in="SourceAlpha" stdDeviation="4"/>
      <feOffset dx="0" dy="10"/>
      <feComponentTransfer><feFuncA type="linear" slope="0.4"/></feComponentTransfer>
      <feMerge><feMergeNode/><feMergeNode in="SourceGraphic"/></feMerge>
    </filter>
<linearGradient id="shaft" x1="0%" y1="0%" x2="100%" y2="0%">
      <stop offset="0%" stop-color="#3a4250"/>
      <stop offset="25%" stop-color="#7e8896"/>
      <stop offset="50%" stop-color="#e0e6ee"/>
      <stop offset="75%" stop-color="#7e8896"/>
      <stop offset="100%" stop-color="#3a4250"/>
    </linearGradient>
<ellipse cx="256" cy="455" rx="115" ry="14" fill="#000" opacity="0.25" filter="url(#ds)"/>
<g filter="url(#ds)">
  <polygon points="226,440 286,440 256,470" fill="#3a4250"/>
  <rect x="226" y="290" width="60" height="155" fill="url(#shaft)"/>
  <line x1="226" y1="300" x2="286" y2="302" stroke="#2a3038" stroke-width="1.5" opacity="0.65"/>
  <line x1="226" y1="312" x2="286" y2="314" stroke="#2a3038" stroke-width="1.5" opacity="0.65"/>
  <line x1="226" y1="324" x2="286" y2="326" stroke="#2a3038" stroke-width="1.5" opacity="0.65"/>
  <line x1="226" y1="336" x2="286" y2="338" stroke="#2a3038" stroke-width="1.5" opacity="0.65"/>
  <line x1="226" y1="348" x2="286" y2="350" stroke="#2a3038" stroke-width="1.5" opacity="0.65"/>
  <line x1="226" y1="360" x2="286" y2="362" stroke="#2a3038" stroke-width="1.5" opacity="0.65"/>
  <line x1="226" y1="372" x2="286" y2="374" stroke="#2a3038" stroke-width="1.5" opacity="0.65"/>
  <line x1="226" y1="384" x2="286" y2="386" stroke="#2a3038" stroke-width="1.5" opacity="0.65"/>
  <line x1="226" y1="396" x2="286" y2="398" stroke="#2a3038" stroke-width="1.5" opacity="0.65"/>
  <line x1="226" y1="408" x2="286" y2="410" stroke="#2a3038" stroke-width="1.5" opacity="0.65"/>
  <line x1="226" y1="420" x2="286" y2="422" stroke="#2a3038" stroke-width="1.5" opacity="0.65"/>
  <line x1="226" y1="432" x2="286" y2="434" stroke="#2a3038" stroke-width="1.5" opacity="0.65"/>
  <line x1="230" y1="302" x2="282" y2="304" stroke="#fff" stroke-width="0.8" opacity="0.35"/>
  <line x1="230" y1="314" x2="282" y2="316" stroke="#fff" stroke-width="0.8" opacity="0.35"/>
  <line x1="230" y1="326" x2="282" y2="328" stroke="#fff" stroke-width="0.8" opacity="0.35"/>
  <line x1="230" y1="338" x2="282" y2="340" stroke="#fff" stroke-width="0.8" opacity="0.35"/>
  <line x1="230" y1="350" x2="282" y2="352" stroke="#fff" stroke-width="0.8" opacity="0.35"/>
  <line x1="230" y1="362" x2="282" y2="364" stroke="#fff" stroke-width="0.8" opacity="0.35"/>
  <line x1="230" y1="374" x2="282" y2="376" stroke="#fff" stroke-width="0.8" opacity="0.35"/>
  <line x1="230" y1="386" x2="282" y2="388" stroke="#fff" stroke-width="0.8" opacity="0.35"/>
  <line x1="230" y1="398" x2="282" y2="400" stroke="#fff" stroke-width="0.8" opacity="0.35"/>
  <line x1="230" y1="410" x2="282" y2="412" stroke="#fff" stroke-width="0.8" opacity="0.35"/>
  <line x1="230" y1="422" x2="282" y2="424" stroke="#fff" stroke-width="0.8" opacity="0.35"/>
  <line x1="230" y1="434" x2="282" y2="436" stroke="#fff" stroke-width="0.8" opacity="0.35"/>
  <ellipse cx="256" cy="240" rx="70" ry="20" fill="url(#shaft)" stroke="#2a3038" stroke-width="1.2"/>
  <ellipse cx="256" cy="238" rx="70" ry="20" fill="#fff" opacity="0.2"/>
  <line x1="256" y1="222" x2="256" y2="258" stroke="#1a1e25" stroke-width="5"/>
  <line x1="234" y1="240" x2="278" y2="240" stroke="#1a1e25" stroke-width="5"/>
</g>
</svg>