<svg xmlns="http://www.w3.org/2000/svg" viewBox="0 0 200 200">
<rect width="200" height="200" fill="#11151d" rx="8"/>

<g stroke="#7ba7d4" stroke-width="2.5" fill="none">
  <!-- 六角华司头 -->
  <polygon points="65,45 135,45 150,60 150,72 135,87 65,87 50,72 50,60" fill="#1a2535"/>
  <polygon points="73,55 127,55 138,64 138,68 127,77 73,77 62,68 62,64" stroke-width="1" opacity="0.4"/>
  <!-- 华司垫 -->
  <ellipse cx="100" cy="95" rx="38" ry="8" fill="#1a2535"/>
  <ellipse cx="100" cy="95" rx="38" ry="8" stroke-width="1.5"/>
  <!-- 杆部 -->
  <rect x="93" y="95" width="14" height="55" fill="#1a2535"/>
</g>
<g stroke="#f7811a" stroke-width="1.5" fill="none">
  <line x1="93" y1="102" x2="107" y2="102"/>
  <line x1="93" y1="108" x2="107" y2="108"/>
  <line x1="93" y1="114" x2="107" y2="114"/>
  <line x1="93" y1="120" x2="107" y2="120"/>
  <line x1="93" y1="126" x2="107" y2="126"/>
  <line x1="93" y1="132" x2="107" y2="132"/>
  <line x1="93" y1="138" x2="107" y2="138"/>
</g>
<!-- 钻头尖 -->
<g stroke="#7ba7d4" stroke-width="2" fill="none">
  <line x1="93" y1="150" x2="100" y2="170"/>
  <line x1="107" y1="150" x2="100" y2="170"/>
  <line x1="98" y1="160" x2="105" y2="155" stroke-width="1"/>
</g>

</svg>