<svg xmlns="http://www.w3.org/2000/svg" viewBox="0 0 512 512" width="512" height="512">
  <defs>
    <radialGradient id="bg" cx="50%" cy="42%" r="75%">
      <stop offset="0%" stop-color="#f5f7fa"/>
      <stop offset="50%" stop-color="#e2e8f0"/>
      <stop offset="100%" stop-color="#a8b2bf"/>
    </radialGradient>
    <!-- 摄影噪点 -->
    <filter id="grain">
      <feTurbulence type="fractalNoise" baseFrequency="0.9" numOctaves="3" seed="5"/>
      <feColorMatrix values="0 0 0 0 0  0 0 0 0 0  0 0 0 0 0  0 0 0 0.08 0"/>
      <feComposite in2="SourceGraphic" operator="in"/>
    </filter>
    <!-- 软景深模糊 -->
    <filter id="depthBlur">
      <feGaussianBlur stdDeviation="1.5"/>
    </filter>
    <!-- 真实阴影 -->
    <filter id="realShadow" x="-50%" y="-50%" width="200%" height="200%">
      <feGaussianBlur in="SourceAlpha" stdDeviation="6"/>
      <feOffset dx="0" dy="14"/>
      <feComponentTransfer><feFuncA type="linear" slope="0.55"/></feComponentTransfer>
      <feMerge><feMergeNode/><feMergeNode in="SourceGraphic"/></feMerge>
    </filter>
    <!-- 边缘磨损 -->
    <filter id="worn">
      <feTurbulence type="turbulence" baseFrequency="0.04" numOctaves="2" seed="3"/>
      <feDisplacementMap in="SourceGraphic" scale="3"/>
    </filter>
    <linearGradient id="metal" x1="0%" y1="0%" x2="100%" y2="0%" gradientTransform="rotate(0)">
      <stop offset="0%" stop-color="#2a3038"/>
      <stop offset="15%" stop-color="#5a6370"/>
      <stop offset="30%" stop-color="#8a92a0"/>
      <stop offset="45%" stop-color="#e8edf4"/>
      <stop offset="52%" stop-color="#ffffff" stop-opacity="0.9"/>
      <stop offset="58%" stop-color="#e8edf4"/>
      <stop offset="75%" stop-color="#8a92a0"/>
      <stop offset="100%" stop-color="#2a3038"/>
    </linearGradient>
    <linearGradient id="topShine" x1="0%" y1="0%" x2="0%" y2="100%">
      <stop offset="0%" stop-color="#ffffff" stop-opacity="0.55"/>
      <stop offset="50%" stop-color="#ffffff" stop-opacity="0.15"/>
      <stop offset="100%" stop-color="#ffffff" stop-opacity="0"/>
    </linearGradient>
    <linearGradient id="thread" x1="0%" y1="0%" x2="100%" y2="0%">
      <stop offset="0%" stop-color="#1a1e25"/>
      <stop offset="50%" stop-color="#6a7280"/>
      <stop offset="100%" stop-color="#1a1e25"/>
    </linearGradient>
  </defs>
  <rect width="100%" height="100%" fill="url(#bg)"/>
  <rect width="100%" height="100%" fill="url(#bg)" filter="url(#grain)" opacity="0.4"/>
  <ellipse cx="256" cy="460" rx="125" ry="14" fill="#000" opacity="0.35" filter="url(#depthBlur)"/>
  <g filter="url(#realShadow)">
    <rect x="226" y="262" width="60" height="186" fill="url(#metal)"/>
    <rect x="226" y="262" width="60" height="40" fill="url(#topShine)"/>
  <line x1="226" y1="274" x2="286" y2="275" stroke="#0a0d14" stroke-width="2" opacity="0.75"/>
  <line x1="226" y1="275" x2="286" y2="276" stroke="#000" stroke-width="1" opacity="0.5"/>
  <line x1="228" y1="273" x2="284" y2="274" stroke="#fff" stroke-width="1" opacity="0.5"/>
  <line x1="226" y1="286" x2="286" y2="287" stroke="#0a0d14" stroke-width="2" opacity="0.75"/>
  <line x1="226" y1="287" x2="286" y2="288" stroke="#000" stroke-width="1" opacity="0.5"/>
  <line x1="228" y1="285" x2="284" y2="286" stroke="#fff" stroke-width="1" opacity="0.5"/>
  <line x1="226" y1="298" x2="286" y2="299" stroke="#0a0d14" stroke-width="2" opacity="0.75"/>
  <line x1="226" y1="299" x2="286" y2="300" stroke="#000" stroke-width="1" opacity="0.5"/>
  <line x1="228" y1="297" x2="284" y2="298" stroke="#fff" stroke-width="1" opacity="0.5"/>
  <line x1="226" y1="310" x2="286" y2="311" stroke="#0a0d14" stroke-width="2" opacity="0.75"/>
  <line x1="226" y1="311" x2="286" y2="312" stroke="#000" stroke-width="1" opacity="0.5"/>
  <line x1="228" y1="309" x2="284" y2="310" stroke="#fff" stroke-width="1" opacity="0.5"/>
  <line x1="226" y1="322" x2="286" y2="323" stroke="#0a0d14" stroke-width="2" opacity="0.75"/>
  <line x1="226" y1="323" x2="286" y2="324" stroke="#000" stroke-width="1" opacity="0.5"/>
  <line x1="228" y1="321" x2="284" y2="322" stroke="#fff" stroke-width="1" opacity="0.5"/>
  <line x1="226" y1="334" x2="286" y2="335" stroke="#0a0d14" stroke-width="2" opacity="0.75"/>
  <line x1="226" y1="335" x2="286" y2="336" stroke="#000" stroke-width="1" opacity="0.5"/>
  <line x1="228" y1="333" x2="284" y2="334" stroke="#fff" stroke-width="1" opacity="0.5"/>
  <line x1="226" y1="346" x2="286" y2="347" stroke="#0a0d14" stroke-width="2" opacity="0.75"/>
  <line x1="226" y1="347" x2="286" y2="348" stroke="#000" stroke-width="1" opacity="0.5"/>
  <line x1="228" y1="345" x2="284" y2="346" stroke="#fff" stroke-width="1" opacity="0.5"/>
  <line x1="226" y1="358" x2="286" y2="359" stroke="#0a0d14" stroke-width="2" opacity="0.75"/>
  <line x1="226" y1="359" x2="286" y2="360" stroke="#000" stroke-width="1" opacity="0.5"/>
  <line x1="228" y1="357" x2="284" y2="358" stroke="#fff" stroke-width="1" opacity="0.5"/>
  <line x1="226" y1="370" x2="286" y2="371" stroke="#0a0d14" stroke-width="2" opacity="0.75"/>
  <line x1="226" y1="371" x2="286" y2="372" stroke="#000" stroke-width="1" opacity="0.5"/>
  <line x1="228" y1="369" x2="284" y2="370" stroke="#fff" stroke-width="1" opacity="0.5"/>
  <line x1="226" y1="382" x2="286" y2="383" stroke="#0a0d14" stroke-width="2" opacity="0.75"/>
  <line x1="226" y1="383" x2="286" y2="384" stroke="#000" stroke-width="1" opacity="0.5"/>
  <line x1="228" y1="381" x2="284" y2="382" stroke="#fff" stroke-width="1" opacity="0.5"/>
  <line x1="226" y1="394" x2="286" y2="395" stroke="#0a0d14" stroke-width="2" opacity="0.75"/>
  <line x1="226" y1="395" x2="286" y2="396" stroke="#000" stroke-width="1" opacity="0.5"/>
  <line x1="228" y1="393" x2="284" y2="394" stroke="#fff" stroke-width="1" opacity="0.5"/>
  <line x1="226" y1="406" x2="286" y2="407" stroke="#0a0d14" stroke-width="2" opacity="0.75"/>
  <line x1="226" y1="407" x2="286" y2="408" stroke="#000" stroke-width="1" opacity="0.5"/>
  <line x1="228" y1="405" x2="284" y2="406" stroke="#fff" stroke-width="1" opacity="0.5"/>
  <line x1="226" y1="418" x2="286" y2="419" stroke="#0a0d14" stroke-width="2" opacity="0.75"/>
  <line x1="226" y1="419" x2="286" y2="420" stroke="#000" stroke-width="1" opacity="0.5"/>
  <line x1="228" y1="417" x2="284" y2="418" stroke="#fff" stroke-width="1" opacity="0.5"/>
  <line x1="226" y1="430" x2="286" y2="431" stroke="#0a0d14" stroke-width="2" opacity="0.75"/>
  <line x1="226" y1="431" x2="286" y2="432" stroke="#000" stroke-width="1" opacity="0.5"/>
  <line x1="228" y1="429" x2="284" y2="430" stroke="#fff" stroke-width="1" opacity="0.5"/>
    <ellipse cx="256" cy="232" rx="82" ry="24" fill="#c8d0dc" stroke="#1a1e25" stroke-width="1.2"/>
    <rect x="174" y="232" width="164" height="24" fill="url(#metal)"/>
    <ellipse cx="256" cy="256" rx="82" ry="24" fill="#3a4250" opacity="0.7"/>
    <ellipse cx="256" cy="230" rx="82" ry="22" fill="#fff" opacity="0.25"/>
    <!-- 内六角 -->
    <ellipse cx="256" cy="228" rx="34" ry="10" fill="#0a0d14"/>
    <ellipse cx="256" cy="228" rx="34" ry="10" fill="none" stroke="#525a68" stroke-width="1.5"/>
    <polygon points="256,221 274,228 274,235 256,242 238,235 238,228" fill="none" stroke="#000" stroke-width="1.5"/>
  </g>
  <rect width="100%" height="100%" fill="#000" filter="url(#grain)" opacity="0.3" pointer-events="none"/>
</svg>