<svg xmlns="http://www.w3.org/2000/svg" viewBox="0 0 200 200">
<rect width="200" height="200" fill="#11151d" rx="8"/>

<g stroke="#7ba7d4" stroke-width="2.5" fill="none" stroke-linecap="round">
  <!-- 圆柱头 -->
  <rect x="60" y="50" width="80" height="30" rx="2" fill="#1a2535"/>
  <!-- 内六角孔 -->
  <polygon points="88,55 112,55 122,65 122,75 112,85 88,85 78,75 78,65" stroke-width="1.5"/>
  <!-- 杆部 -->
  <rect x="92" y="80" width="16" height="80" fill="#1a2535"/>
</g>
<!-- 螺纹 -->
<g stroke="#f7811a" stroke-width="1.5" fill="none">
  <line x1="92" y1="85" x2="108" y2="85"/>
  <line x1="92" y1="92" x2="108" y2="92"/>
  <line x1="92" y1="99" x2="108" y2="99"/>
  <line x1="92" y1="106" x2="108" y2="106"/>
  <line x1="92" y1="113" x2="108" y2="113"/>
  <line x1="92" y1="120" x2="108" y2="120"/>
  <line x1="92" y1="127" x2="108" y2="127"/>
  <line x1="92" y1="134" x2="108" y2="134"/>
  <line x1="92" y1="141" x2="108" y2="141"/>
  <line x1="92" y1="148" x2="108" y2="148"/>
</g>
<!-- 顶部圆角 -->
<g stroke="#7ba7d4" stroke-width="2" fill="none">
  <line x1="92" y1="160" x2="100" y2="175"/>
  <line x1="108" y1="160" x2="100" y2="175"/>
</g>

</svg>