<svg xmlns="http://www.w3.org/2000/svg" viewBox="0 0 200 200">
<rect width="200" height="200" fill="#11151d" rx="8"/>

<g stroke="#7ba7d4" stroke-width="2.5" fill="none">
  <!-- T 头 -->
  <rect x="50" y="40" width="100" height="14" rx="2" fill="#1a2535"/>
  <rect x="88" y="54" width="24" height="20" fill="#1a2535"/>
  <!-- 杆部 -->
  <rect x="92" y="74" width="16" height="90" fill="#1a2535"/>
</g>
<!-- 螺纹 -->
<g stroke="#f7811a" stroke-width="1.5" fill="none">
  <line x1="92" y1="82" x2="108" y2="82"/>
  <line x1="92" y1="90" x2="108" y2="90"/>
  <line x1="92" y1="98" x2="108" y2="98"/>
  <line x1="92" y1="106" x2="108" y2="106"/>
  <line x1="92" y1="114" x2="108" y2="114"/>
  <line x1="92" y1="122" x2="108" y2="122"/>
  <line x1="92" y1="130" x2="108" y2="130"/>
  <line x1="92" y1="138" x2="108" y2="138"/>
  <line x1="92" y1="146" x2="108" y2="146"/>
</g>
<g stroke="#7ba7d4" stroke-width="2" fill="none">
  <line x1="92" y1="164" x2="100" y2="178"/>
  <line x1="108" y1="164" x2="100" y2="178"/>
</g>

</svg>