<svg xmlns="http://www.w3.org/2000/svg" viewBox="0 0 512 512" width="512" height="512">
<defs>
    <radialGradient id="bg" cx="50%" cy="45%" r="70%">
      <stop offset="0%" stop-color="#f6f8fb"/>
      <stop offset="100%" stop-color="#b8c2cf"/>
    </radialGradient>
  </defs>
  <rect width="100%" height="100%" fill="url(#bg)"/>
<filter id="ds" x="-30%" y="-30%" width="160%" height="160%">
      <feGaussianBlur in="SourceAlpha" stdDeviation="4"/>
      <feOffset dx="0" dy="10"/>
      <feComponentTransfer><feFuncA type="linear" slope="0.4"/></feComponentTransfer>
      <feMerge><feMergeNode/><feMergeNode in="SourceGraphic"/></feMerge>
    </filter>
<linearGradient id="shaft" x1="0%" y1="0%" x2="100%" y2="0%">
      <stop offset="0%" stop-color="#3a4250"/>
      <stop offset="25%" stop-color="#7e8896"/>
      <stop offset="50%" stop-color="#e0e6ee"/>
      <stop offset="75%" stop-color="#7e8896"/>
      <stop offset="100%" stop-color="#3a4250"/>
    </linearGradient>
<ellipse cx="256" cy="455" rx="115" ry="14" fill="#000" opacity="0.25" filter="url(#ds)"/>
<g filter="url(#ds)">
  <!-- U 型：两个杆 + 弧顶 -->
  <path d="M 180 200 Q 256 100 332 200 L 332 450 L 312 450 L 312 215 Q 256 145 200 215 L 200 450 L 180 450 Z" fill="url(#shaft)" stroke="#2a3038" stroke-width="1.5"/>
  <!-- 螺纹 -->
  <line x1="180" y1="350" x2="180" y2="445" stroke="#2a3038" stroke-width="1.5" opacity="0.7"/>
  <line x1="180" y1="352" x2="180" y2="445" stroke="#fff" stroke-width="0.8" opacity="0.4"/>
  <line x1="184" y1="354" x2="184" y2="445" stroke="#fff" stroke-width="0.5" opacity="0.5"/>
  <line x1="332" y1="350" x2="332" y2="445" stroke="#2a3038" stroke-width="1.5" opacity="0.7"/>
  <line x1="332" y1="352" x2="332" y2="445" stroke="#fff" stroke-width="0.8" opacity="0.4"/>
  <line x1="328" y1="354" x2="328" y2="445" stroke="#fff" stroke-width="0.5" opacity="0.5"/>
  <!-- 顶部高光 -->
  <path d="M 190 200 Q 256 115 322 200" fill="none" stroke="#fff" stroke-width="2" opacity="0.4"/>
</g>
</svg>