<svg xmlns="http://www.w3.org/2000/svg" viewBox="0 0 512 512" width="512" height="512">
<defs>
    <radialGradient id="bg" cx="50%" cy="45%" r="70%">
      <stop offset="0%" stop-color="#f6f8fb"/>
      <stop offset="100%" stop-color="#b8c2cf"/>
    </radialGradient>
  </defs>
  <rect width="100%" height="100%" fill="url(#bg)"/>
<filter id="ds" x="-30%" y="-30%" width="160%" height="160%">
      <feGaussianBlur in="SourceAlpha" stdDeviation="4"/>
      <feOffset dx="0" dy="10"/>
      <feComponentTransfer><feFuncA type="linear" slope="0.4"/></feComponentTransfer>
      <feMerge><feMergeNode/><feMergeNode in="SourceGraphic"/></feMerge>
    </filter>
<linearGradient id="shaft" x1="0%" y1="0%" x2="100%" y2="0%">
      <stop offset="0%" stop-color="#3a4250"/>
      <stop offset="25%" stop-color="#7e8896"/>
      <stop offset="50%" stop-color="#e0e6ee"/>
      <stop offset="75%" stop-color="#7e8896"/>
      <stop offset="100%" stop-color="#3a4250"/>
    </linearGradient>
<ellipse cx="256" cy="455" rx="115" ry="14" fill="#000" opacity="0.25" filter="url(#ds)"/>
<g filter="url(#ds)">
  <rect x="226" y="290" width="60" height="160" fill="url(#shaft)"/>
  <line x1="226" y1="302" x2="286" y2="304" stroke="#2a3038" stroke-width="1.5" opacity="0.65"/>
  <line x1="226" y1="314" x2="286" y2="316" stroke="#2a3038" stroke-width="1.5" opacity="0.65"/>
  <line x1="226" y1="326" x2="286" y2="328" stroke="#2a3038" stroke-width="1.5" opacity="0.65"/>
  <line x1="226" y1="338" x2="286" y2="340" stroke="#2a3038" stroke-width="1.5" opacity="0.65"/>
  <line x1="226" y1="350" x2="286" y2="352" stroke="#2a3038" stroke-width="1.5" opacity="0.65"/>
  <line x1="226" y1="362" x2="286" y2="364" stroke="#2a3038" stroke-width="1.5" opacity="0.65"/>
  <line x1="226" y1="374" x2="286" y2="376" stroke="#2a3038" stroke-width="1.5" opacity="0.65"/>
  <line x1="226" y1="386" x2="286" y2="388" stroke="#2a3038" stroke-width="1.5" opacity="0.65"/>
  <line x1="226" y1="398" x2="286" y2="400" stroke="#2a3038" stroke-width="1.5" opacity="0.65"/>
  <line x1="226" y1="410" x2="286" y2="412" stroke="#2a3038" stroke-width="1.5" opacity="0.65"/>
  <line x1="226" y1="422" x2="286" y2="424" stroke="#2a3038" stroke-width="1.5" opacity="0.65"/>
  <line x1="226" y1="434" x2="286" y2="436" stroke="#2a3038" stroke-width="1.5" opacity="0.65"/>
  <line x1="230" y1="304" x2="282" y2="306" stroke="#fff" stroke-width="0.8" opacity="0.35"/>
  <line x1="230" y1="316" x2="282" y2="318" stroke="#fff" stroke-width="0.8" opacity="0.35"/>
  <line x1="230" y1="328" x2="282" y2="330" stroke="#fff" stroke-width="0.8" opacity="0.35"/>
  <line x1="230" y1="340" x2="282" y2="342" stroke="#fff" stroke-width="0.8" opacity="0.35"/>
  <line x1="230" y1="352" x2="282" y2="354" stroke="#fff" stroke-width="0.8" opacity="0.35"/>
  <line x1="230" y1="364" x2="282" y2="366" stroke="#fff" stroke-width="0.8" opacity="0.35"/>
  <line x1="230" y1="376" x2="282" y2="378" stroke="#fff" stroke-width="0.8" opacity="0.35"/>
  <line x1="230" y1="388" x2="282" y2="390" stroke="#fff" stroke-width="0.8" opacity="0.35"/>
  <line x1="230" y1="400" x2="282" y2="402" stroke="#fff" stroke-width="0.8" opacity="0.35"/>
  <line x1="230" y1="412" x2="282" y2="414" stroke="#fff" stroke-width="0.8" opacity="0.35"/>
  <line x1="230" y1="424" x2="282" y2="426" stroke="#fff" stroke-width="0.8" opacity="0.35"/>
  <line x1="230" y1="436" x2="282" y2="438" stroke="#fff" stroke-width="0.8" opacity="0.35"/>
  <!-- 左右翼 -->
  <ellipse cx="120" cy="260" rx="60" ry="30" fill="url(#shaft)" stroke="#2a3038" stroke-width="1.2"/>
  <ellipse cx="392" cy="260" rx="60" ry="30" fill="url(#shaft)" stroke="#2a3038" stroke-width="1.2"/>
  <ellipse cx="120" cy="260" rx="60" ry="30" fill="#fff" opacity="0.15"/>
  <ellipse cx="392" cy="260" rx="60" ry="30" fill="#fff" opacity="0.15"/>
  <!-- 中心圆 -->
  <ellipse cx="256" cy="260" rx="40" ry="22" fill="#a8b3c0" stroke="#2a3038" stroke-width="1.2"/>
  <ellipse cx="256" cy="260" rx="40" ry="22" fill="url(#shaft)"/>
</g>
</svg>